<?xml version="1.0" encoding="UTF-8"?>
<svg width="24px" height="24px" viewBox="0 0 24 24" version="1.1" xmlns="http://www.w3.org/2000/svg" xmlns:xlink="http://www.w3.org/1999/xlink">
    <title>Edit</title>
    <g id="Xnix/Line/Pencil" stroke="none" stroke-width="1" fill="none" fill-rule="evenodd" stroke-linecap="round" stroke-linejoin="round">
        <g id="Vector" transform="translate(6.000000, 5.000000)" stroke="#ffff" stroke-width="1.5">
            <path d="M6.20900016,2.4897645 L0.310999996,9.84876436 C0.210086758,9.96581102 0.15005716,10.1125495 0.140000005,10.2667642 L0,13.2897643 C0.0412687344,13.6898762 0.384980197,13.9899143 0.787000034,13.9767642 L3.7869999,13.2657641 C3.93800281,13.2274129 4.0728586,13.1419466 4.17199996,13.0217646 L10.212,5.4897645 M6.212,2.48976421 L7.80000004,0.509764333 C8.16971097,-0.0158950599 8.88791494,-0.156978709 9.42900021,0.189764376 L11.666,2.05176427 C11.8833206,2.269486 12.004626,2.56502344 12.0029536,2.87264034 C12.0012461,3.18025685 11.8766998,3.47444364 11.6570003,3.68976398 L10.212,5.489764 M6.212,2.4897645 C6.50055926,4.41538031 8.2826122,5.75192013 10.212,5.4897645" id="vector-10"></path>
        </g>
    </g>
</svg>